<svg xmlns="http://www.w3.org/2000/svg" width="120" height="120" viewBox="0 0 120 120" role="img"><rect x="4" y="8" width="112" height="60" rx="8" fill="#d9f2ff" stroke="#2b2440" stroke-width="3" stroke-linejoin="round" stroke-linecap="round"/><circle cx="77" cy="29.5" r="6.5" fill="#2b2440" stroke="#2b2440" stroke-width="6" stroke-linejoin="round"/><circle cx="86.5" cy="24.5" r="8.5" fill="#2b2440" stroke="#2b2440" stroke-width="6" stroke-linejoin="round"/><circle cx="97" cy="29" r="6.5" fill="#2b2440" stroke="#2b2440" stroke-width="6" stroke-linejoin="round"/><rect x="71" y="29" width="28" height="7" rx="3.5" fill="#2b2440" stroke="#2b2440" stroke-width="6" stroke-linejoin="round"/><circle cx="77" cy="29.5" r="6.5" fill="#ffffff"/><circle cx="86.5" cy="24.5" r="8.5" fill="#ffffff"/><circle cx="97" cy="29" r="6.5" fill="#ffffff"/><rect x="71" y="29" width="28" height="7" rx="3.5" fill="#ffffff"/><rect x="4" y="66" width="112" height="8" rx="3" fill="#c9ced6" stroke="#2b2440" stroke-width="3" stroke-linejoin="round" stroke-linecap="round"/><rect x="4" y="74" width="112" height="8" rx="3" fill="#5b5470" stroke="#2b2440" stroke-width="3" stroke-linejoin="round" stroke-linecap="round"/><rect x="14" y="74" width="4" height="34" rx="1" fill="#5b5470" stroke="#2b2440" stroke-width="3" stroke-linejoin="round" stroke-linecap="round"/><rect x="32" y="74" width="4" height="34" rx="1" fill="#5b5470" stroke="#2b2440" stroke-width="3" stroke-linejoin="round" stroke-linecap="round"/><rect x="50" y="74" width="4" height="34" rx="1" fill="#5b5470" stroke="#2b2440" stroke-width="3" stroke-linejoin="round" stroke-linecap="round"/><rect x="68" y="74" width="4" height="34" rx="1" fill="#5b5470" stroke="#2b2440" stroke-width="3" stroke-linejoin="round" stroke-linecap="round"/><rect x="86" y="74" width="4" height="34" rx="1" fill="#5b5470" stroke="#2b2440" stroke-width="3" stroke-linejoin="round" stroke-linecap="round"/><rect x="104" y="74" width="4" height="34" rx="1" fill="#5b5470" stroke="#2b2440" stroke-width="3" stroke-linejoin="round" stroke-linecap="round"/><rect x="4" y="106" width="112" height="6" rx="3" fill="#c9ced6" stroke="#2b2440" stroke-width="3" stroke-linejoin="round" stroke-linecap="round"/><rect x="22" y="50" width="16" height="16" rx="3" fill="#ff7a59" stroke="#2b2440" stroke-width="3" stroke-linejoin="round" stroke-linecap="round"/><circle cx="26" cy="42" r="6" fill="#6cc04a" stroke="#2b2440" stroke-width="3" stroke-linejoin="round" stroke-linecap="round"/><circle cx="34" cy="40" r="6" fill="#ff8fa8" stroke="#2b2440" stroke-width="3" stroke-linejoin="round" stroke-linecap="round"/></svg>
