<svg xmlns="http://www.w3.org/2000/svg" width="120" height="120" viewBox="0 0 120 120" role="img"><path d="M26 100 Q22 56 46 44 H74 Q98 56 94 100Z" fill="#ef5350" stroke="#2b2440" stroke-width="3" stroke-linejoin="round" stroke-linecap="round"/><rect x="48" y="34" width="24" height="10" rx="4" fill="#5b5470" stroke="#2b2440" stroke-width="3" stroke-linejoin="round" stroke-linecap="round"/><circle cx="60" cy="30" r="5" fill="#5b5470" stroke="#2b2440" stroke-width="3" stroke-linejoin="round" stroke-linecap="round"/><path d="M26 78 Q8 74 10 58 Q14 54 22 60" fill="none" stroke="#2b2440" stroke-width="3" stroke-linejoin="round" stroke-linecap="round"/><path d="M94 60 Q112 58 108 82 Q104 90 94 88" fill="none" stroke="#2b2440" stroke-width="6" stroke-linecap="round" stroke-linejoin="round"/><path d="M26 70 Q8 60 8 48 L24 56Z" fill="#ef5350" stroke="#2b2440" stroke-width="3" stroke-linejoin="round" stroke-linecap="round"/><path d="M36 34 q-5 -6 0 -12 q5 -6 0 -12" fill="none" stroke="#c9ced6" stroke-width="3.5" stroke-linecap="round" stroke-linejoin="round"/><rect x="24" y="100" width="72" height="8" rx="3" fill="#5b5470" stroke="#2b2440" stroke-width="3" stroke-linejoin="round" stroke-linecap="round"/></svg>
