<svg xmlns="http://www.w3.org/2000/svg" width="120" height="120" viewBox="0 0 120 120" role="img"><rect x="66" y="6" width="40" height="52" rx="16" fill="#ffffff" stroke="#2b2440" stroke-width="3" stroke-linejoin="round" stroke-linecap="round"/><rect x="72" y="12" width="28" height="40" rx="12" fill="#d9f2ff" stroke="#2b2440" stroke-width="3" stroke-linejoin="round" stroke-linecap="round"/><circle cx="79.7" cy="37.05" r="4.55" fill="#2b2440" stroke="#2b2440" stroke-width="6" stroke-linejoin="round"/><circle cx="86.35" cy="33.55" r="5.95" fill="#2b2440" stroke="#2b2440" stroke-width="6" stroke-linejoin="round"/><circle cx="93.7" cy="36.7" r="4.55" fill="#2b2440" stroke="#2b2440" stroke-width="6" stroke-linejoin="round"/><rect x="75.5" y="36.7" width="19.6" height="4.9" rx="2.45" fill="#2b2440" stroke="#2b2440" stroke-width="6" stroke-linejoin="round"/><circle cx="79.7" cy="37.05" r="4.55" fill="#ffffff"/><circle cx="86.35" cy="33.55" r="5.95" fill="#ffffff"/><circle cx="93.7" cy="36.7" r="4.55" fill="#ffffff"/><rect x="75.5" y="36.7" width="19.6" height="4.9" rx="2.45" fill="#ffffff"/><path d="M14 118 Q18 98 42 94 H78 Q102 98 106 118Z" fill="#ff7a59" stroke="#2b2440" stroke-width="3" stroke-linejoin="round" stroke-linecap="round"/><path d="M42 96 L78 118 M78 96 L42 118" fill="none" stroke="#2d3a6b" stroke-width="5" stroke-linecap="round" stroke-linejoin="round"/><circle cx="26" cy="66" r="7" fill="#f2c79a" stroke="#2b2440" stroke-width="3" stroke-linejoin="round" stroke-linecap="round"/><circle cx="94" cy="66" r="7" fill="#f2c79a" stroke="#2b2440" stroke-width="3" stroke-linejoin="round" stroke-linecap="round"/><circle cx="60" cy="64" r="34" fill="#f2c79a" stroke="#2b2440" stroke-width="3" stroke-linejoin="round" stroke-linecap="round"/><circle cx="46" cy="62" r="5" fill="#2b2440"/><circle cx="47.6" cy="60.2" r="1.7" fill="#fff"/><circle cx="74" cy="62" r="5" fill="#2b2440"/><circle cx="75.6" cy="60.2" r="1.7" fill="#fff"/><ellipse cx="38" cy="76" rx="6" ry="4" fill="#ff9ab0" opacity=".8"/><ellipse cx="82" cy="76" rx="6" ry="4" fill="#ff9ab0" opacity=".8"/><path d="M50 78 q10 10 20 0" fill="none" stroke="#2b2440" stroke-width="3" stroke-linecap="round" stroke-linejoin="round"/><path d="M28 56 Q28 20 60 20 Q92 20 92 56 Q80 40 60 40 Q40 40 28 56Z" fill="#5b5470" stroke="#2b2440" stroke-width="3" stroke-linejoin="round" stroke-linecap="round"/></svg>
