<svg xmlns="http://www.w3.org/2000/svg" width="120" height="120" viewBox="0 0 120 120" role="img"><path d="M10 100 H92 Q112 100 112 82 Q112 74 104 72 Q108 52 100 46 Q92 56 94 70 Q84 84 70 88 Q40 94 10 100Z" fill="#e8c07a" stroke="#2b2440" stroke-width="3" stroke-linejoin="round" stroke-linecap="round"/><circle cx="52" cy="58" r="34" fill="#ff7a59" stroke="#2b2440" stroke-width="3" stroke-linejoin="round" stroke-linecap="round"/><path d="M30 58 Q30 36 52 36 Q74 36 74 58 Q74 74 56 74 Q42 74 42 60 Q42 50 52 50" fill="none" stroke="#ffffff" stroke-width="4" stroke-linecap="round" stroke-linejoin="round"/><path d="M96 46 L94 28 M106 50 L114 32" fill="none" stroke="#2b2440" stroke-width="3.5" stroke-linecap="round" stroke-linejoin="round"/><circle cx="94" cy="26" r="4" fill="#ffffff" stroke="#2b2440" stroke-width="3" stroke-linejoin="round" stroke-linecap="round"/><circle cx="114" cy="30" r="4" fill="#ffffff" stroke="#2b2440" stroke-width="3" stroke-linejoin="round" stroke-linecap="round"/></svg>
